<mxfile host="app.diagrams.net" modified="2023-08-22T22:58:20.393Z" agent="Mozilla/5.0 (Macintosh; Intel Mac OS X 10.15; rv:109.0) Gecko/20100101 Firefox/115.0" version="21.6.8" etag="-X7PH9K4__PPXABts3CX" type="github">
  <diagram name="Page-1" id="3hKNQH16sDU-0gm0L-F4">
    <mxGraphModel>
      <root>
        <mxCell id="0" />
        <mxCell id="1" parent="0" />
      </root>
    </mxGraphModel>
  </diagram>
</mxfile>
